#!OML:ASF F:\VICON\USERDATA\INSTALL\SteveWalk\SteveWalk.ASF
:FULLY-SPECIFIED
:DEGREES
121
root -0.208908 16.2412 -18.9298 19.0117 5.99093 -1.27255
lowerback -16.0652 -1.04491 2.67416
upperback -5.68303 -1.89092 2.81798
thorax 2.96821 -0.930484 1.10497
lowerneck -5.75765 -1.75929 0.645173
upperneck 7.22878 -2.24293 -2.14983
head 3.30773 -1.18049 -0.918802
rclavicle -1.07468e-015 1.59028e-015
rhumerus -61.0207 -39.877 -42.1015
rradius 13.506
rwrist 30.1859
rhand -13.8096 -35.2387
rfingers 7.12502
rthumb 12.3127 -64.8562
lclavicle -1.07468e-015 1.59028e-015
lhumerus -28.9483 -0.877149 85.9848
lradius 41.8614
lwrist 6.50432
lhand -18.0435 -15.6689
lfingers 7.12502
lthumb 8.22838 14.1509
rfemur -44.816 -2.75218 27.6833
rtibia 40.5724
rfoot -16.0666 1.19378
rtoes -13.6167
lfemur -26.793 1.33967 -17.4378
ltibia 71.8674
lfoot 5.36575 -5.07645
ltoes -24.1522
122
root -0.218018 16.285 -18.7164 19.0289 6.0218 -1.0914
lowerback -16.0253 -1.06495 2.20346
upperback -5.73708 -1.84032 2.79366
thorax 2.90487 -0.902931 1.35535
lowerneck -5.6336 -1.79129 0.701905
upperneck 7.31498 -2.28967 -2.14858
head 3.31223 -1.20172 -0.92968
rclavicle 6.83322e-017 5.56597e-015
rhumerus -56.7809 -37.715 -48.1656
rradius 14.3809
rwrist 25.965
rhand -13.7752 -35.4023
rfingers 7.12502
rthumb 12.3458 -65.0178
lclavicle 6.83322e-017 5.56597e-015
lhumerus -29.6713 -0.734167 86.2852
lradius 39.9983
lwrist 5.02121
lhand -16.7897 -15.6791
lfingers 7.12502
lthumb 9.43829 14.0895
rfemur -43.6759 -2.7244 27.5253
rtibia 40.1642
rfoot -16.6305 0.893702
rtoes -12.5755
lfemur -28.728 1.29119 -17.5679
ltibia 73.0412
lfoot 4.43505 -4.19588
ltoes -21.5189
123
root -0.21934 16.3157 -18.5125 19.0354 5.6966 -0.957827
lowerback -15.998 -0.985367 1.83491
upperback -5.81404 -1.67491 2.76731
thorax 2.81774 -0.818994 1.56694
lowerneck -5.33815 -1.80491 0.690898
upperneck 7.41317 -2.3036 -2.16824
head 3.28885 -1.20873 -0.931418
rclavicle 1.94778e-014 -2.22639e-014
rhumerus -52.9525 -35.3913 -53.5047
rradius 15.2558
rwrist 22.1332
rhand -13.9505 -35.6787
rfingers 7.12502
rthumb 12.1768 -65.3042
lclavicle 1.94778e-014 -2.22639e-014
lhumerus -30.5501 -0.527576 86.6064
lradius 38.2292
lwrist 3.73803
lhand -16.107 -15.6854
lfingers 7.12502
lthumb 10.097 14.0523
rfemur -42.5419 -2.49974 27.3048
rtibia 39.6655
rfoot -17.2624 0.774636
rtoes -12.1028
lfemur -30.4822 1.66358 -17.8931
ltibia 74.1119
lfoot 3.38566 -3.14752
ltoes -21.9147
124
root -0.218818 16.3467 -18.3086 18.9737 5.54742 -0.696743
lowerback -15.9029 -0.980026 1.42772
upperback -5.81431 -1.59964 2.66813
thorax 2.77466 -0.779536 1.70758
lowerneck -5.25023 -1.83611 0.881793
upperneck 7.4736 -2.3509 -2.28946
head 3.28885 -1.23129 -1.00606
rclavicle 7.60351e-015 1.51076e-014
rhumerus -49.6601 -33.6107 -57.7086
rradius 15.9176
rwrist 19.3598
rhand -14.1142 -36.1423
rfingers 7.12502
rthumb 12.0189 -65.7772
lclavicle 7.60351e-015 1.51076e-014
lhumerus -31.3879 -0.424058 86.8276
lradius 36.4486
lwrist 2.61994
lhand -15.9903 -16.1017
lfingers 7.12502
lthumb 10.2095 13.6306
rfemur -41.3673 -2.36966 26.941
rtibia 39.2217
rfoot -17.7727 0.6415
rtoes -11.719
lfemur -32.0027 1.73234 -18.2842
ltibia 74.7547
lfoot 2.36596 -1.97382
ltoes -19.748
125
root -0.219387 16.3776 -18.0947 18.8637 5.5652 -0.531408
lowerback -15.9009 -0.986301 1.20486
upperback -5.7518 -1.57154 2.55187
thorax 2.84196 -0.764648 1.71576
lowerneck -5.29668 -1.81552 0.967937
upperneck 7.6567 -2.33241 -2.23935
head 3.36106 -1.21815 -1.00752
rclavicle 7.66253e-015 1.51076e-014
rhumerus -46.7415 -31.6264 -61.6248
rradius 16.8594
rwrist 16.5638
rhand -14.1831 -36.8292
rfingers 7.12502
rthumb 11.9525 -66.468
lclavicle 7.66253e-015 1.51076e-014
lhumerus -32.2679 -0.405647 86.9472
lradius 34.8171
lwrist 1.55351
lhand -15.6942 -16.3243
lfingers 7.12502
lthumb 10.4951 13.3937
rfemur -40.0921 -2.32534 26.7068
rtibia 38.7907
rfoot -18.3595 0.54502
rtoes -10.9515
lfemur -33.3633 1.61201 -18.4679
ltibia 75.1225
lfoot 1.15367 -0.958537
ltoes -15.2875
126
root -0.21784 16.3965 -17.8855 18.8336 5.53714 -0.545474
lowerback -16.0257 -0.955684 1.20812
upperback -5.70899 -1.53385 2.49408
thorax 2.95092 -0.746082 1.6579
lowerneck -5.28403 -1.72706 0.882491
upperneck 7.86173 -2.21305 -2.12591
head 3.43379 -1.15719 -0.952824
rclavicle 9.50439e-015 1.11319e-014
rhumerus -44.1053 -29.5701 -65.1078
rradius 17.8302
rwrist 14.242
rhand -14.54 -37.3024
rfingers 7.12502
rthumb 11.6084 -66.9609
lclavicle 9.50439e-015 1.11319e-014
lhumerus -33.1162 -0.231029 87.0629
lradius 33.1087
lwrist 0.538833
lhand -15.2852 -16.4599
lfingers 7.12502
lthumb 10.8896 13.2377
rfemur -38.9125 -2.36772 26.7149
rtibia 38.2933
rfoot -19.0096 0.561473
rtoes -10.5418
lfemur -34.8012 1.66174 -18.5385
ltibia 75.2987
lfoot -0.0803007 -0.138796
ltoes -13.1624
